PathFileType	4	(X/Y/Z)	KinectSkeleton.trc																																																	
DataRate	CameraRate	NumFrames	NumMarkers	Units	OrigDataRate	OrigDataStartFrame	OrigNumFrames																																													
60	60	22	17	mm	60	124	300																																													
Frame#	Time	Neck			ShoulderMid			R.Shoulder			L.Shoulder			R.Elbow			L.Elbow			R.Wrist			L.Wrist			HipCenter			R.Hip			L.Hip			R.Knee			L.Knee			R.Ankle			L.Ankle			R.Foot			L.Foot		
		X1	Y1	Z1	X2	Y2	Z2	X3	Y3	Z3	X4	Y4	Z4	X5	Y5	Z5	X6	Y6	Z6	X7	Y7	Z7	X8	Y8	Z8	X9	Y9	Z9	X10	Y10	Z10	X11	Y11	Z11	X12	Y12	Z12	X13	Y13	Z13	X14	Y14	Z14	X15	Y15	Z15	X16	Y16	Z16	X17	Y17	Z17
																																																				
124	6.956	-1038.502	286.432	172.596	-1038.502	286.432	172.596	-966.519	222.254	294.979	-1026.791	226.306	19.367	-917.651	-14.484	354.5	-1038.463	9.293	-92.277	-791.218	54.465	204.887	-865.375	56.713	6.938	-827.919	-130.453	129.896	-813.593	-129.835	201.165	-843.806	-131.138	50.862	-534.582	-345.447	175.111	-586.182	-354.605	-43.878	-483.976	-681.9	142.157	-558.722	-690.927	-20.194	-349.538	-747.932	114.058	-422.087	-778.076	-54.414
125	7.002	-1030.068	286.807	173.53	-1030.068	286.807	173.53	-965.621	221.849	298.05	-1021.055	227.032	21.717	-913.867	-13.177	349.452	-1041.069	12.991	-88.355	-788.249	57.625	203.355	-864.067	54.787	1.163	-813.503	-122.491	130.579	-801.531	-123.417	201.429	-826.778	-121.464	52.008	-531.999	-344.758	178.737	-571.712	-346.788	-29.162	-482.051	-677.257	145.206	-538.513	-679.261	-16.139	-349.277	-744.607	122.238	-401.872	-763.993	-47.079
126	7.048	-1031.122	286.912	172.895	-1031.122	286.912	172.895	-964.559	223.853	298.253	-1016.591	227.484	20.552	-915.186	-12.925	349.415	-1042.824	11.383	-86.606	-790.732	58.233	201.175	-866.884	55.007	6.198	-786.986	-107.097	131.812	-777.762	-108.996	203.388	-797.214	-104.991	52.437	-512.716	-338.653	186.236	-539.729	-332.676	-21.136	-455.818	-670.972	146.748	-497.387	-665.79	-11.769	-324.769	-743.497	125.098	-361.056	-754.548	-36.092
127	7.094	-1032.732	286.661	172.445	-1032.732	286.661	172.445	-965.212	223.699	297.731	-1018.053	227.481	19.741	-913.979	-13.368	347.972	-970.423	10.942	-79.933	-790.456	58.91	198.956	-789.912	72.5	-7.452	-786.964	-107.486	131.519	-777.723	-109.295	203.232	-797.212	-105.479	51.992	-512.067	-339.439	188.669	-532.242	-324.968	-23.063	-451.679	-671.613	147.675	-473.246	-656.288	-18.811	-319.445	-743.506	129.392	-331.414	-736.475	-43.535
128	7.139	-1033.12	287.099	173.181	-1033.12	287.099	173.181	-965.406	223.819	298.782	-1018.559	225.556	20.665	-916.055	-15.07	345.572	-977.027	4.631	-73.622	-790.274	57.358	197.722	-791.878	56.71	-3.855	-787.51	-108.48	132.485	-778.175	-110.295	204.389	-797.863	-106.466	52.746	-510.993	-340.176	189.858	-527.107	-319.317	-25.337	-447.75	-672.903	149.769	-458.414	-649.737	-22.492	-313.872	-742.987	132.968	-313.471	-724.508	-49.149
129	7.186	-1032.478	287.602	173.208	-1032.478	287.602	173.208	-964.886	224.267	298.898	-1018.081	225.96	20.675	-916.447	-14.952	345.271	-978.113	5.516	-75.547	-789.89	56.937	197.75	-793.268	57.47	-4.743	-787.136	-108.265	132.621	-777.791	-110.076	204.542	-797.499	-106.256	52.863	-510.032	-339.408	189.874	-524.988	-316.69	-26.049	-445.592	-672.082	150.558	-452.767	-646.446	-23.823	-311.188	-741.288	133.986	-306.902	-719.203	-51.257
130	7.231	-1035.99	287.466	171.935	-1035.99	287.466	171.935	-967.985	225.419	298.566	-1022.512	224.764	19.163	-916.64	-13.618	346.926	-984.156	2.482	-75.43	-788.879	56.182	198.519	-796.12	47.704	-6.56	-787.417	-108.165	132.647	-778.116	-109.778	204.81	-797.732	-106.375	52.621	-506.111	-335.769	189.507	-518.995	-309.785	-27.959	-440.589	-669.509	151.668	-444.447	-640.105	-24.285	-305.353	-738.27	135.59	-297.646	-711.933	-52.322
131	7.28	-1027.645	280.958	167.504	-1027.645	280.958	167.504	-967.361	223.769	292.817	-1019.956	221.898	20.374	-914.47	-6.049	335.345	-981.223	9.993	-73.994	-786.849	57.309	195.154	-789.883	36.213	-33.205	-790.924	-101.385	132.087	-780.898	-102.146	201.336	-802.042	-100.542	55.292	-509.278	-306.75	187.608	-525.453	-282.464	-25.218	-451.661	-629.39	158.513	-449.98	-599.147	-19.219	-324.363	-700.832	144.074	-310.188	-670.57	-47.082
132	7.325	-1030.403	286.318	172.68	-1030.403	286.318	172.68	-967.742	222.64	297.734	-1019.424	228.835	20.971	-912.519	-12.603	337.855	-984.767	11.586	-75.948	-780.861	55.535	197.244	-787.83	35.384	-39.068	-802.376	-113.534	126.901	-791.302	-115.275	197.545	-814.656	-111.602	48.559	-499.651	-304.282	181.962	-524.387	-282.603	-39.703	-450.661	-635.372	148.796	-457.192	-608.515	-33.109	-316.017	-700.03	135.643	-310.606	-672.822	-63.721
133	7.37	-1035.127	289.048	174.846	-1035.127	289.048	174.846	-970.109	226.427	301.911	-1035.333	228.973	21.453	-904.519	-11.155	333.942	-988.349	3.856	-59.885	-773.06	65.431	193.104	-788.976	40.642	-31.397	-808.226	-118.874	127.612	-791.068	-116.644	198.098	-827.255	-121.347	49.447	-459.594	-228.357	150.646	-521.774	-258.894	-62.969	-428.806	-567.805	133.513	-465.363	-591.099	-40.351	-295.961	-638.373	110.708	-320.943	-659.029	-83.637
134	7.417	-1030.222	284.809	172.269	-1030.222	284.809	172.269	-964.445	224.984	297.385	-1029.436	224.853	21.229	-919.495	-8.166	357.801	-976.901	7.975	-68.353	-746.349	-1.496	249.427	-781.826	42.813	-30.101	-797.086	-110.877	127.679	-774.499	-102.734	195.076	-822.135	-119.908	52.938	-438.802	-160.672	124.092	-525.017	-244.654	-79.381	-391	-493.658	120.475	-472.17	-570.571	-36.728	-259.18	-556.301	85.925	-336.38	-642.199	-91.536
135	7.462	-1030.502	285.014	172.417	-1030.502	285.014	172.417	-964.602	225.231	297.503	-1029.843	225.055	21.357	-919.295	-7.835	358.099	-977.631	7.852	-67.705	-745.849	-3.016	250.06	-782.662	43.429	-29.461	-797.298	-110.689	127.736	-774.7	-102.545	195.139	-822.36	-119.719	52.989	-438.796	-159.248	123.924	-525.218	-244.292	-79.553	-388.127	-491.843	119.613	-472.251	-570.239	-36.961	-255.717	-553.14	84.829	-336.455	-641.809	-91.888
136	7.508	-1034.449	289.546	172.383	-1034.449	289.546	172.383	-964.104	226.242	292.485	-1036.063	230.955	21.31	-910.145	-4.635	350.711	-971.729	14.771	-59.553	-786.327	59.342	202.217	-772.577	40.048	-47.578	-816.451	-110.516	116.658	-794.709	-106.191	184.418	-840.563	-115.313	41.516	-468.611	-212.367	133.221	-546.378	-246.782	-87.574	-401.498	-539.558	104.546	-486.589	-572.357	-65.692	-262.82	-589.174	79.203	-345.164	-635.469	-114.701
137	7.554	-1036.158	294.784	174.173	-1036.158	294.784	174.173	-968.029	231.683	295.429	-1043.742	236.528	23.642	-895.671	0.643	321.01	-984.214	22.356	-63.967	-759.697	73.341	188.849	-787.051	57.469	-53.495	-802.768	-94.867	114.639	-783.447	-92.435	183.011	-824.195	-97.565	38.816	-468.711	-227.211	134.714	-535.227	-241.319	-86.266	-399.664	-552.728	102.831	-474.794	-566.233	-71.79	-264.191	-609.139	76.86	-337.038	-636.479	-120.018
138	7.6	-1031.602	289.567	171.797	-1031.602	289.567	171.797	-966.242	225.898	292.106	-1044.425	236.238	21.933	-901.605	0.727	348.666	-1001.361	20.63	-65.252	-731.08	-8.89	242.643	-804.457	44.148	-74.413	-819.225	-110.363	113.596	-801.896	-110.079	181.803	-838.443	-110.678	37.957	-491.66	-249.845	144.743	-546.537	-253.34	-70.879	-428.454	-572.443	106.845	-491.794	-576.183	-73.878	-290.759	-620.669	84.984	-352.989	-637.526	-125.651
139	7.649	-1031.315	289.734	171.913	-1031.315	289.734	171.913	-966.493	225.846	292.373	-1044.318	236.653	22.019	-905.925	-0.079	350.314	-1002.042	21.19	-65.845	-734.819	-15.961	246.034	-805.111	44.333	-74.952	-819.395	-110.328	113.611	-802.069	-110.063	181.812	-838.609	-110.622	37.979	-492.375	-250.985	144.913	-547.034	-253.859	-70.881	-431.917	-574.092	107.15	-493.605	-576.892	-73.547	-294.673	-623.546	85.297	-355.129	-638.919	-125.335
140	7.693	-1034.277	289.494	171.831	-1034.277	289.494	171.831	-967.455	228.959	295.03	-1045.592	236.32	19.602	-903.689	-3.175	337.794	-986.973	24.941	-77.684	-762.789	71.414	210.593	-787.521	52.746	-80.625	-824.718	-119.103	113.849	-806.437	-118.669	182.866	-844.99	-119.583	37.312	-495.558	-266.774	138.07	-550.666	-256.883	-86.666	-445.911	-596.974	103.239	-500.517	-585.262	-81.362	-309.678	-654.655	80.548	-359.606	-649.923	-130.621
141	7.74	-1034.355	289.727	172.118	-1034.355	289.727	172.118	-968.044	228.981	295.525	-1046.056	236.889	19.804	-908.632	-3.973	340.361	-988.102	25.948	-78.95	-762.181	59.83	213.491	-788.557	53.363	-82.313	-824.907	-118.994	113.898	-806.617	-118.579	182.929	-845.189	-119.454	37.345	-496.131	-267.611	137.885	-551.097	-257.091	-87.02	-448.601	-598.215	103.225	-501.48	-585.622	-81.547	-312.775	-656.86	80.348	-360.808	-650.708	-131.046
142	7.786	-1034.772	288.992	172.077	-1034.772	288.992	172.077	-968.771	228.323	295.603	-1047.512	236.441	19.876	-914.563	-5.119	343.853	-990.267	26.473	-81.119	-757.078	29.991	219.158	-790.496	50.968	-87.537	-825.092	-119.419	113.807	-806.798	-118.987	182.809	-845.379	-119.898	37.287	-497.068	-269.199	137.506	-551.785	-258.013	-87.356	-452.771	-600.235	103.936	-502.897	-586.522	-81.694	-317.846	-660.623	80.639	-363.27	-653.165	-131.874
143	7.831	-1035.934	289.104	173.097	-1035.934	289.104	173.097	-969.744	228.279	296.462	-1048.877	236.481	20.924	-919.229	-5.528	346.836	-992.037	24.948	-76.954	-756.065	6.903	225.175	-792.473	51.009	-83.323	-825.843	-119.028	114.388	-807.523	-118.632	183.378	-846.159	-119.467	37.879	-498.079	-269.462	138.323	-552.911	-258.419	-86.591	-455.781	-600.799	105.345	-504.456	-586.976	-81.062	-321.384	-662.215	81.737	-365.694	-655.032	-131.712
144	7.878	-1041.906	292.24	176.86	-1041.906	292.24	176.86	-975.09	227.525	298.213	-1047.493	237.758	24.542	-898.968	-2.029	336.018	-1008.662	16.159	-59.723	-772.119	63.211	189.918	-838.774	9.207	48.658	-839.531	-116.135	125.727	-823.117	-115.409	195.293	-857.734	-116.94	48.58	-509.909	-257.108	143.45	-560.748	-243.585	-81.37	-452.114	-586.158	106.624	-514.553	-572.743	-69.06	-323.398	-655.53	73.874	-383.252	-655.074	-119.121
145	7.925	-1043.14	291.156	176.877	-1043.14	291.156	176.877	-975.243	227.14	297.218	-1045.262	236.419	25.215	-899.128	-2.441	331.303	-1003.19	16.528	-60.492	-773.261	65.562	186.228	-838.445	5.781	54.512	-855.766	-124.102	134.259	-839.938	-122.603	203.792	-873.319	-125.764	57.15	-522.949	-254.176	153.241	-575.093	-242.882	-76.836	-464.384	-582.538	118.094	-536.791	-571.997	-57.533	-333.396	-647.102	85.996	-405.211	-653.174	-107.612
